<?xml version="1.0" encoding="UTF-8" standalone="no"?>
<!DOCTYPE svg PUBLIC "-//W3C//DTD SVG 1.1//EN" "http://www.w3.org/Graphics/SVG/1.1/DTD/svg11.dtd">
<svg xmlns="http://www.w3.org/2000/svg" xmlns:xl="http://www.w3.org/1999/xlink" version="1.1" viewBox="0 50 1234 475" width="1234pt" height="475pt" xmlns:dc="http://purl.org/dc/elements/1.1/">
  <metadata> Produced by OmniGraffle 7.2.2 
    <dc:date>2020-09-11 07:03:13 +0000</dc:date>
  </metadata>
  <defs>
    <linearGradient x1="0" x2="1" id="Gradient" gradientUnits="userSpaceOnUse">
      <stop offset="0" stop-color="#ff914d"/>
      <stop offset="1" stop-color="#f26077"/>
    </linearGradient>
    <linearGradient id="Obj_Gradient" xl:href="#Gradient" gradientTransform="translate(0 287.5) scale(1234)"/>
  </defs>
  <g stroke="none" stroke-opacity="1" stroke-dasharray="none" fill="none" fill-opacity="1">
    <title>Canvas 1</title>
    <rect fill="white" width="1290" height="1071"/>
    <g>
      <title>Layer 1</title>
      <path d="M 404.92207 363.41756 C 255.91075 312.8023 105.78589 388.7252 59.21985 451.99426 L 0 525 L 0 50 L 1234 50 L 1234 397.83593 C 1181.765 326.16473 997.6267 321.1103 887.7916 363.41756 C 777.9565 405.72483 553.9334 414.0328 404.92207 363.41756 Z" fill="url(#Obj_Gradient)"/>
      <path d="M 265.148 155.848 C 260.2793 157.88268 256.51885 160.93465 253.8665 165.004 C 251.21415 169.07335 249.888 173.9783 249.888 179.719 C 249.888 182.40768 250.14233 184.27883 250.651 185.3325 C 251.15967 186.38617 251.414 186.98567 251.414 187.131 C 247.48998 187.131 244.56518 186.3135 242.6395 184.6785 C 240.71382 183.0435 239.751 180.33669 239.751 176.558 C 239.751 171.9073 241.65848 167.38386 245.4735 162.9875 C 249.28852 158.59114 254.1753 155.03051 260.134 152.3055 C 266.0927 149.58049 272.0513 148.218 278.01 148.218 C 279.02734 148.218 280.48066 148.29067 282.37 148.436 L 275.394 180.918 L 291.417 180.918 L 298.393 148.436 L 314.089 148.436 L 296.758 229.968 L 281.062 229.968 L 289.782 188.984 L 273.759 188.984 L 265.039 229.968 L 249.343 229.968 Z" fill="white"/>
      <path d="M 326.515 230.622 C 321.13764 230.622 316.95935 229.22318 313.98 226.4255 C 311.00065 223.62782 309.511 219.2497 309.511 213.291 C 309.511 208.27697 310.492 202.75436 312.454 196.723 C 314.416 190.69164 317.6133 185.47786 322.046 181.0815 C 326.4787 176.68514 332.1103 174.487 338.941 174.487 C 346.93437 174.487 350.931 177.97497 350.931 184.951 C 350.931 189.02035 349.76834 192.76265 347.443 196.178 C 345.11766 199.59335 342.02935 202.3365 338.178 204.4075 C 334.32665 206.4785 330.22102 207.65933 325.861 207.95 C 325.71567 210.13 325.643 211.58333 325.643 212.31 C 325.643 215.87068 326.26066 218.28683 327.496 219.5585 C 328.73134 220.83017 330.72965 221.466 333.491 221.466 C 337.415 221.466 340.7758 220.55768 343.5735 218.741 C 346.3712 216.92432 349.4413 214.16302 352.784 210.457 L 356.49 210.457 C 348.42396 223.9004 338.4324 230.622 326.515 230.622 Z M 326.733 202.718 C 329.42168 202.57267 331.98315 201.628 334.4175 199.884 C 336.85185 198.14 338.81383 195.92368 340.3035 193.235 C 341.79317 190.54632 342.538 187.71235 342.538 184.733 C 342.538 181.75365 341.62968 180.264 339.813 180.264 C 337.197 180.264 334.6355 182.55298 332.1285 187.131 C 329.6215 191.70902 327.823 196.90464 326.733 202.718 Z" fill="white"/>
      <path d="M 369.788 257.218 C 366.37265 257.218 363.3752 256.10984 360.7955 253.8935 C 358.2158 251.67716 356.926 248.86135 356.926 245.446 C 356.926 242.24865 357.72533 239.63268 359.324 237.598 C 360.92267 235.56332 362.99365 233.96467 365.537 232.802 C 368.08035 231.63933 371.49565 230.404 375.783 229.096 L 376.873 224.3 C 373.167 228.5147 368.73436 230.622 363.575 230.622 C 360.087 230.622 357.27118 229.532 355.1275 227.352 C 352.98382 225.172 351.912 221.90202 351.912 217.542 C 351.912 215.72532 352.20266 213.36368 352.784 210.457 L 360.196 175.468 L 375.892 175.468 L 368.044 212.528 C 367.826 213.4 367.717 214.30833 367.717 215.253 C 367.717 218.45035 368.807 220.049 370.987 220.049 C 373.02168 220.049 374.76566 219.19518 376.219 217.4875 C 377.67234 215.77982 378.835 213.43635 379.707 210.457 L 387.119 175.468 L 402.924 175.468 L 389.626 238.688 C 388.17266 245.66403 385.6112 250.49632 381.9415 253.185 C 378.2718 255.87368 374.2207 257.218 369.788 257.218 Z M 367.281 247.517 C 368.589 247.517 369.82433 246.84484 370.987 245.5005 C 372.14967 244.15616 373.058 241.99435 373.712 239.015 L 375.02 232.584 C 371.16865 233.892 368.18934 235.418 366.082 237.162 C 363.97466 238.906 362.921 241.15865 362.921 243.92 C 362.921 244.792 363.357 245.6095 364.229 246.3725 C 365.101 247.1355 366.11833 247.517 367.281 247.517 Z" fill="white"/>
      <path d="M 407.393 243.702 C 406.739 243.266 406.412 242.64834 406.412 241.849 C 406.412 240.977 406.63 240.214 407.066 239.56 C 407.502 238.906 408.22866 238.034 409.246 236.944 C 410.26334 235.854 410.99 234.982 411.426 234.328 C 411.862 233.674 412.08 232.87467 412.08 231.93 C 412.08 231.13066 411.60767 230.404 410.663 229.75 C 407.24765 227.57 405.54 224.91768 405.54 221.793 C 405.54 219.395 406.37566 217.34218 408.047 215.6345 C 409.71834 213.92682 411.753 213.073 414.151 213.073 C 416.47634 213.073 418.293 213.836 419.601 215.362 C 420.909 216.888 421.563 218.88632 421.563 221.357 C 421.563 224.77235 420.2732 228.62365 417.6935 232.911 C 415.1138 237.19835 411.68035 240.79532 407.393 243.702 Z" fill="white"/>
      <path d="M 476.172 155.957 C 471.3033 157.91901 467.54285 160.91648 464.8905 164.9495 C 462.23815 168.98252 460.912 173.90564 460.912 179.719 C 460.912 182.40768 461.16633 184.27883 461.675 185.3325 C 462.18367 186.38617 462.438 186.98567 462.438 187.131 C 458.514 187.131 455.5892 186.3135 453.6635 184.6785 C 451.7378 183.0435 450.775 180.33669 450.775 176.558 C 450.775 171.9073 452.6825 167.38386 456.4975 162.9875 C 460.3125 158.59114 465.1993 155.03051 471.158 152.3055 C 477.1167 149.58049 483.0753 148.218 489.034 148.218 C 490.05134 148.218 491.50466 148.29067 493.394 148.436 L 476.063 229.968 L 460.367 229.968 Z" fill="white"/>
      <path d="M 527.729 230.622 C 523.587 230.622 520.13535 229.20501 517.374 226.371 C 514.61265 223.53699 513.232 219.10436 513.232 213.073 C 513.232 207.69564 514.3038 202.04586 516.4475 196.1235 C 518.5912 190.20114 521.7885 185.18719 526.0395 181.0815 C 530.2905 176.97581 535.359 174.923 541.245 174.923 C 544.22435 174.923 546.44066 175.43166 547.894 176.449 C 549.34734 177.46634 550.074 178.81066 550.074 180.482 L 550.074 181.245 L 551.273 175.468 L 566.969 175.468 L 559.121 212.528 C 558.8303 213.618 558.685 214.78066 558.685 216.016 C 558.685 219.14068 560.17465 220.703 563.154 220.703 C 565.1887 220.703 566.9508 219.75834 568.4405 217.869 C 569.9302 215.97966 571.111 213.50902 571.983 210.457 L 576.561 210.457 C 573.8723 218.30504 570.54785 223.62782 566.5875 226.4255 C 562.62715 229.22318 558.6487 230.622 554.652 230.622 C 551.6 230.622 549.1475 229.76818 547.2945 228.0605 C 545.4415 226.35282 544.33334 223.86402 543.97 220.594 C 541.86266 223.57335 539.5192 225.9895 536.9395 227.8425 C 534.3598 229.6955 531.2897 230.622 527.729 230.622 Z M 534.814 220.049 C 536.6307 220.049 538.42916 219.19518 540.2095 217.4875 C 541.98984 215.77982 543.207 213.43635 543.861 210.457 L 549.093 185.823 C 549.093 184.87833 548.7297 183.95184 548.003 183.0435 C 547.2763 182.13516 546.15 181.681 544.624 181.681 C 541.7173 181.681 539.10134 183.37048 536.776 186.7495 C 534.45066 190.12852 532.634 194.1978 531.326 198.9575 C 530.018 203.7172 529.364 207.91365 529.364 211.547 C 529.364 215.18035 529.8908 217.50566 530.9445 218.523 C 531.9982 219.54034 533.288 220.049 534.814 220.049 Z" fill="white"/>
      <path d="M 636.402 230.622 C 632.55065 230.622 629.753 229.45934 628.009 227.134 C 626.265 224.80866 625.393 221.86568 625.393 218.305 C 625.393 216.779 625.5747 215.05318 625.938 213.1275 C 626.3013 211.20182 626.6828 209.33068 627.0825 207.514 C 627.4822 205.69732 627.7547 204.53467 627.9 204.026 C 628.4813 201.48265 629.0263 198.97568 629.535 196.505 C 630.0437 194.03432 630.298 192.036 630.298 190.51 C 630.298 186.80398 628.99 184.951 626.374 184.951 C 624.48466 184.951 622.81334 185.8775 621.36 187.7305 C 619.90666 189.5835 618.744 191.99965 617.872 194.979 L 610.46 229.968 L 594.764 229.968 L 602.721 192.363 C 602.939 191.491 603.048 190.58267 603.048 189.638 C 603.048 186.44065 601.958 184.842 599.778 184.842 C 597.7433 184.842 595.9812 185.7685 594.4915 187.6215 C 593.0018 189.4745 591.821 191.92698 590.949 194.979 L 583.537 229.968 L 567.841 229.968 L 579.395 175.468 L 595.091 175.468 L 593.892 181.136 C 597.598 176.99398 602.03064 174.923 607.19 174.923 C 613.5847 174.923 617.327 178.04764 618.417 184.297 C 622.4137 178.1203 627.464 175.032 633.568 175.032 C 637.274 175.032 640.217 176.04932 642.397 178.084 C 644.577 180.11868 645.667 183.20698 645.667 187.349 C 645.667 189.45634 645.4127 191.79982 644.904 194.3795 C 644.3953 196.95918 643.6687 200.10198 642.724 203.808 C 642.1427 206.06068 641.6158 208.25882 641.1435 210.4025 C 640.6712 212.54618 640.435 214.23566 640.435 215.471 C 640.435 216.92434 640.762 218.05066 641.416 218.85 C 642.07 219.64934 643.1963 220.049 644.795 220.049 C 646.539 220.049 647.738 219.831 648.392 219.395 C 647.956 223.10102 646.62984 225.89866 644.4135 227.788 C 642.19716 229.67734 639.5267 230.622 636.402 230.622 Z" fill="white"/>
      <path d="M 712.157 231.385 C 707.797 231.385 703.36436 229.45935 698.859 225.608 L 697.987 229.968 L 682.291 229.968 L 697.115 160.644 L 713.247 158.464 L 700.167 219.613 C 702.2017 221.06634 704.27266 221.793 706.38 221.793 C 710.522 221.793 714.1735 219.39502 717.3345 214.599 C 720.4955 209.80298 722.948 203.69904 724.692 196.287 C 726.436 188.87496 727.308 181.39037 727.308 173.833 C 727.308 166.71163 725.9092 161.49785 723.1115 158.1915 C 720.3138 154.88515 716.408 153.232 711.394 153.232 C 705.944 153.232 701.0572 154.30382 696.7335 156.4475 C 692.4098 158.59118 689.0127 161.66131 686.542 165.658 C 684.0713 169.65469 682.836 174.34164 682.836 179.719 C 682.836 182.40768 683.0903 184.27883 683.599 185.3325 C 684.1077 186.38617 684.362 186.98567 684.362 187.131 C 680.5833 187.131 677.69484 186.33167 675.6965 184.733 C 673.69816 183.13433 672.699 180.55468 672.699 176.994 C 672.699 172.05264 674.552 167.36569 678.258 162.933 C 681.964 158.50031 686.9235 154.93968 693.1365 152.251 C 699.3495 149.56232 706.053 148.218 713.247 148.218 C 723.2024 148.218 730.5416 151.16097 735.265 157.047 C 739.9884 162.93303 742.35 170.45395 742.35 179.61 C 742.35 187.89404 740.9512 196.0508 738.1535 204.0805 C 735.3558 212.1102 731.6317 218.6683 726.981 223.755 C 722.3303 228.8417 717.389 231.385 712.157 231.385 Z" fill="white"/>
      <path d="M 759.899 230.622 C 754.5216 230.622 750.34335 229.22318 747.364 226.4255 C 744.38465 223.62782 742.895 219.2497 742.895 213.291 C 742.895 208.27697 743.876 202.75436 745.838 196.723 C 747.8 190.69164 750.9973 185.47786 755.43 181.0815 C 759.8627 176.68514 765.4943 174.487 772.325 174.487 C 780.3184 174.487 784.315 177.97497 784.315 184.951 C 784.315 189.02035 783.1523 192.76265 780.827 196.178 C 778.5017 199.59335 775.41335 202.3365 771.562 204.4075 C 767.71065 206.4785 763.605 207.65933 759.245 207.95 C 759.0997 210.13 759.027 211.58333 759.027 212.31 C 759.027 215.87068 759.6447 218.28683 760.88 219.5585 C 762.1153 220.83017 764.11365 221.466 766.875 221.466 C 770.799 221.466 774.1598 220.55768 776.9575 218.741 C 779.7552 216.92432 782.8253 214.16302 786.168 210.457 L 789.874 210.457 C 781.808 223.9004 771.8164 230.622 759.899 230.622 Z M 760.117 202.718 C 762.8057 202.57267 765.3672 201.628 767.8015 199.884 C 770.2358 198.14 772.1978 195.92368 773.6875 193.235 C 775.1772 190.54632 775.922 187.71235 775.922 184.733 C 775.922 181.75365 775.0137 180.264 773.197 180.264 C 770.581 180.264 768.0195 182.55298 765.5125 187.131 C 763.0055 191.70902 761.207 196.90464 760.117 202.718 Z" fill="white"/>
      <path d="M 793.58 175.468 L 809.276 175.468 L 807.859 182.226 C 810.3297 180.04599 812.5642 178.37467 814.5625 177.212 C 816.5608 176.04933 818.7227 175.468 821.048 175.468 C 823.3733 175.468 825.2082 176.26733 826.5525 177.866 C 827.8968 179.46467 828.569 181.39032 828.569 183.643 C 828.569 185.75034 827.8787 187.60333 826.498 189.202 C 825.1173 190.80067 823.1917 191.6 820.721 191.6 C 819.1223 191.6 818.0505 191.2185 817.5055 190.4555 C 816.9605 189.6925 816.5427 188.58434 816.252 187.131 C 816.034 186.18633 815.816 185.496 815.598 185.06 C 815.38 184.624 814.9803 184.406 814.399 184.406 C 812.873 184.406 811.5832 184.71483 810.5295 185.3325 C 809.4758 185.95017 808.1133 187.022 806.442 188.548 L 797.722 229.968 L 782.026 229.968 Z" fill="white"/>
      <path d="M 837.943 230.622 C 834.455 230.622 831.6392 229.532 829.4955 227.352 C 827.3518 225.172 826.28 221.90202 826.28 217.542 C 826.28 215.72532 826.5707 213.36368 827.152 210.457 L 838.815 155.848 L 854.947 153.668 L 842.412 212.528 C 842.1213 213.618 841.976 214.78066 841.976 216.016 C 841.976 217.46934 842.3212 218.50483 843.0115 219.1225 C 843.7018 219.74017 844.8463 220.049 846.445 220.049 C 848.5523 220.049 850.5143 219.15884 852.331 217.3785 C 854.1477 215.59816 855.4557 213.29101 856.255 210.457 L 860.833 210.457 C 858.1443 218.30504 854.6927 223.62782 850.478 226.4255 C 846.2633 229.22318 842.085 230.622 837.943 230.622 Z" fill="white"/>
      <path d="M 874.458 169.582 C 872.06 169.582 870.0253 168.74634 868.354 167.075 C 866.6827 165.40366 865.847 163.36901 865.847 160.971 C 865.847 158.57299 866.6827 156.52018 868.354 154.8125 C 870.0253 153.10482 872.06 152.251 874.458 152.251 C 876.856 152.251 878.9088 153.10482 880.6165 154.8125 C 882.3242 156.52018 883.178 158.57299 883.178 160.971 C 883.178 163.36901 882.3242 165.40366 880.6165 167.075 C 878.9088 168.74634 876.856 169.582 874.458 169.582 Z M 867.046 230.622 C 863.558 230.622 860.7422 229.532 858.5985 227.352 C 856.4548 225.172 855.383 221.90202 855.383 217.542 C 855.383 215.72532 855.6737 213.36368 856.255 210.457 L 863.667 175.468 L 879.363 175.468 L 871.515 212.528 C 871.2243 213.618 871.079 214.78066 871.079 216.016 C 871.079 217.46934 871.4242 218.50483 872.1145 219.1225 C 872.8048 219.74017 873.9493 220.049 875.548 220.049 C 877.6553 220.049 879.6173 219.15884 881.434 217.3785 C 883.2507 215.59816 884.5587 213.29101 885.358 210.457 L 889.936 210.457 C 887.2473 218.30504 883.7957 223.62782 879.581 226.4255 C 875.3663 229.22318 871.188 230.622 867.046 230.622 Z" fill="white"/>
      <path d="M 922.854 230.622 C 919.0026 230.622 916.205 229.45934 914.461 227.134 C 912.717 224.80866 911.845 221.86568 911.845 218.305 C 911.845 216.779 912.0267 215.05318 912.39 213.1275 C 912.7533 211.20182 913.1348 209.33068 913.5345 207.514 C 913.9342 205.69732 914.2067 204.53467 914.352 204.026 C 914.9333 201.48265 915.4783 198.97568 915.987 196.505 C 916.4957 194.03432 916.75 192.036 916.75 190.51 C 916.75 186.80398 915.442 184.951 912.826 184.951 C 910.9367 184.951 909.2653 185.8775 907.812 187.7305 C 906.3587 189.5835 905.196 191.99965 904.324 194.979 L 896.912 229.968 L 881.216 229.968 L 892.77 175.468 L 908.466 175.468 L 907.267 181.136 C 910.9004 177.06665 915.1513 175.032 920.02 175.032 C 923.726 175.032 926.669 176.04932 928.849 178.084 C 931.029 180.11868 932.119 183.20698 932.119 187.349 C 932.119 189.45634 931.8647 191.79982 931.356 194.3795 C 930.8473 196.95918 930.1207 200.10198 929.176 203.808 C 928.5947 206.06068 928.0678 208.25882 927.5955 210.4025 C 927.1232 212.54618 926.887 214.23566 926.887 215.471 C 926.887 216.92434 927.214 218.05066 927.868 218.85 C 928.522 219.64934 929.6483 220.049 931.247 220.049 C 932.991 220.049 934.19 219.831 934.844 219.395 C 934.408 223.10102 933.0818 225.89866 930.8655 227.788 C 928.6492 229.67734 925.9787 230.622 922.854 230.622 Z" fill="white"/>
      <path d="M 977.463 150.289 L 994.249 148 L 978.444 204.789 L 969.179 204.789 Z M 970.705 230.622 C 968.307 230.622 966.2542 229.76818 964.5465 228.0605 C 962.8388 226.35282 961.985 224.3 961.985 221.902 C 961.985 219.504 962.8388 217.46934 964.5465 215.798 C 966.2542 214.12666 968.307 213.291 970.705 213.291 C 973.103 213.291 975.1377 214.12666 976.809 215.798 C 978.4803 217.46934 979.316 219.504 979.316 221.902 C 979.316 224.3 978.4803 226.35282 976.809 228.0605 C 975.1377 229.76818 973.103 230.622 970.705 230.622 Z" fill="white"/>
    </g>
  </g>
</svg>
