<?xml version="1.0" encoding="UTF-8" standalone="no"?>
<!DOCTYPE svg PUBLIC "-//W3C//DTD SVG 1.1//EN" "http://www.w3.org/Graphics/SVG/1.1/DTD/svg11.dtd">
<svg xmlns="http://www.w3.org/2000/svg" xmlns:xl="http://www.w3.org/1999/xlink" version="1.1" viewBox="0 51 1234 386" width="1234pt" height="386pt" xmlns:dc="http://purl.org/dc/elements/1.1/">
  <metadata> Produced by OmniGraffle 7.2.2 
    <dc:date>2020-09-11 07:45:23 +0000</dc:date>
  </metadata>
  <defs>
    <linearGradient x1="0" x2="1" id="Gradient" gradientUnits="userSpaceOnUse">
      <stop offset="0" stop-color="#ff914d"/>
      <stop offset="1" stop-color="#f26077"/>
    </linearGradient>
    <linearGradient id="Obj_Gradient" xl:href="#Gradient" gradientTransform="translate(682121e-18 244.17305) scale(1234)"/>
  </defs>
  <g stroke="none" stroke-opacity="1" stroke-dasharray="none" fill="none" fill-opacity="1">
    <title>banner</title>
    <rect fill="white" width="1235" height="962"/>
    <g>
      <title>banner-top 2</title>
      <path d="M 435 342 C 285.98868 291.38474 131.81818 300 76 361 L 682121e-18 436.83094 L 682121e-18 51.51515 L 1234 51.51515 L 1234 399.3511 C 1181.765 327.67988 1011.7047 260.21905 901.8696 302.5263 C 792.0345 344.8336 584.0113 392.61526 435 342 Z" fill="url(#Obj_Gradient)"/>
      <path d="M 265.148 144.98001 C 260.2793 147.21555 256.51885 150.56881 253.8665 155.0399 C 251.21415 159.51097 249.888 164.90014 249.888 171.20756 C 249.888 174.16166 250.14233 176.21753 250.651 177.37522 C 251.15967 178.53291 251.414 179.19159 251.414 179.35127 C 247.48998 179.35127 244.56518 178.45307 242.6395 176.65666 C 240.71382 174.86024 239.751 171.88622 239.751 167.7345 C 239.751 162.6247 241.65848 157.65469 245.4735 152.82432 C 249.28852 147.99396 254.1753 144.08182 260.134 141.0878 C 266.0927 138.09377 272.0513 136.59678 278.01 136.59678 C 279.02734 136.59678 280.48066 136.67662 282.37 136.8363 L 275.394 172.52492 L 291.417 172.52492 L 298.393 136.8363 L 314.089 136.8363 L 296.758 226.41714 L 281.062 226.41714 L 289.782 181.3872 L 273.759 181.3872 L 265.039 226.41714 L 249.343 226.41714 Z" fill="white"/>
      <path d="M 326.515 227.1357 C 321.13764 227.1357 316.95935 225.5988 313.98 222.52492 C 311.00065 219.45105 309.511 214.64072 309.511 208.09378 C 309.511 202.58477 310.492 196.51697 312.454 189.8902 C 314.416 183.26341 317.6133 177.53493 322.046 172.70456 C 326.4787 167.8742 332.1103 165.45905 338.941 165.45905 C 346.93437 165.45905 350.931 169.29135 350.931 176.95606 C 350.931 181.42714 349.76834 185.53887 347.443 189.29139 C 345.11766 193.0439 342.02935 196.05784 338.178 198.3333 C 334.32665 200.60877 330.22102 201.90616 325.861 202.22552 C 325.71567 204.62074 325.643 206.21753 325.643 207.01594 C 325.643 210.92813 326.26066 213.5828 327.496 214.98 C 328.73134 216.37722 330.72965 217.07582 333.491 217.07582 C 337.415 217.07582 340.7758 216.07783 343.5735 214.0818 C 346.3712 212.0858 349.4413 209.0519 352.784 204.98 L 356.49 204.98 C 348.42396 219.75054 338.4324 227.1357 326.515 227.1357 Z M 326.733 196.47702 C 329.42168 196.31734 331.98315 195.27942 334.4175 193.36324 C 336.85185 191.44707 338.81383 189.01196 340.3035 186.05786 C 341.79317 183.10375 342.538 179.99 342.538 176.71654 C 342.538 173.44307 341.62968 171.80636 339.813 171.80636 C 337.197 171.80636 334.6355 174.3213 332.1285 179.35127 C 329.6215 184.38123 327.823 190.08976 326.733 196.47702 Z" fill="white"/>
      <path d="M 369.788 256.35726 C 366.37265 256.35726 363.3752 255.1397 360.7955 252.70456 C 358.2158 250.26942 356.926 247.17564 356.926 243.42313 C 356.926 239.91013 357.72533 237.0359 359.324 234.80037 C 360.92267 232.56483 362.99365 230.80836 365.537 229.5309 C 368.08035 228.25346 371.49565 226.89619 375.783 225.45905 L 376.873 220.1896 C 373.167 224.82035 368.73436 227.1357 363.575 227.1357 C 360.087 227.1357 357.27118 225.9381 355.1275 223.54289 C 352.98382 221.14766 351.912 217.55489 351.912 212.76444 C 351.912 210.76842 352.20266 208.17364 352.784 204.98 L 360.196 166.5369 L 375.892 166.5369 L 368.044 207.25546 C 367.826 208.21355 367.717 209.21154 367.717 210.24947 C 367.717 213.76246 368.807 215.51893 370.987 215.51893 C 373.02168 215.51893 374.76566 214.58082 376.219 212.70456 C 377.67234 210.8283 378.835 208.25348 379.707 204.98 L 387.119 166.5369 L 402.924 166.5369 L 389.626 235.99798 C 388.17266 243.66268 385.6112 248.972 381.9415 251.92612 C 378.2718 254.88023 374.2207 256.35726 369.788 256.35726 Z M 367.281 245.69857 C 368.589 245.69857 369.82433 244.96006 370.987 243.483 C 372.14967 242.00595 373.058 239.63073 373.712 236.35726 L 375.02 229.2914 C 371.16865 230.72852 368.18934 232.40515 366.082 234.32133 C 363.97466 236.2375 362.921 238.71253 362.921 241.74648 C 362.921 242.70457 363.357 243.60276 364.229 244.4411 C 365.101 245.27942 366.11833 245.69857 367.281 245.69857 Z" fill="white"/>
      <path d="M 407.393 241.50696 C 406.739 241.0279 406.412 240.34928 406.412 239.47103 C 406.412 238.51294 406.63 237.67463 407.066 236.95606 C 407.502 236.2375 408.22866 235.27942 409.246 234.0818 C 410.26334 232.8842 410.99 231.92612 411.426 231.20756 C 411.862 230.489 412.08 229.61075 412.08 228.57283 C 412.08 227.69458 411.60767 226.89618 410.663 226.17762 C 407.24765 223.7824 405.54 220.86825 405.54 217.4351 C 405.54 214.80036 406.37566 212.5449 408.047 210.66863 C 409.71834 208.79238 411.753 207.85426 414.151 207.85426 C 416.47634 207.85426 418.293 208.69258 419.601 210.36923 C 420.909 212.0459 421.563 214.24147 421.563 216.95606 C 421.563 220.70857 420.2732 224.94007 417.6935 229.65067 C 415.1138 234.36127 411.68035 238.31333 407.393 241.50696 Z" fill="white"/>
      <path d="M 476.172 145.09977 C 471.3033 147.25547 467.54285 150.54885 464.8905 154.98001 C 462.23815 159.41117 460.912 164.8203 460.912 171.20756 C 460.912 174.16166 461.16633 176.21753 461.675 177.37522 C 462.18367 178.53291 462.438 179.19159 462.438 179.35127 C 458.514 179.35127 455.5892 178.45307 453.6635 176.65666 C 451.7378 174.86024 450.775 171.88622 450.775 167.7345 C 450.775 162.6247 452.6825 157.65469 456.4975 152.82432 C 460.3125 147.99396 465.1993 144.08182 471.158 141.0878 C 477.1167 138.09377 483.0753 136.59678 489.034 136.59678 C 490.05134 136.59678 491.50466 136.67662 493.394 136.8363 L 476.063 226.41714 L 460.367 226.41714 Z" fill="white"/>
      <path d="M 527.729 227.1357 C 523.587 227.1357 520.13535 225.57883 517.374 222.46504 C 514.61265 219.35125 513.232 214.48104 513.232 207.85426 C 513.232 201.94605 514.3038 195.73853 516.4475 189.2315 C 518.5912 182.7245 521.7885 177.21556 526.0395 172.70456 C 530.2905 168.19356 535.359 165.9381 541.245 165.9381 C 544.22435 165.9381 546.44066 166.49697 547.894 167.61474 C 549.34734 168.73251 550.074 170.20954 550.074 172.04588 L 550.074 172.8842 L 551.273 166.5369 L 566.969 166.5369 L 559.121 207.25546 C 558.8303 208.45307 558.685 209.7305 558.685 211.0878 C 558.685 214.52095 560.17465 216.2375 563.154 216.2375 C 565.1887 216.2375 566.9508 215.19958 568.4405 213.12372 C 569.9302 211.04787 571.111 208.33332 571.983 204.98 L 576.561 204.98 C 573.8723 213.6028 570.54785 219.45105 566.5875 222.52492 C 562.62715 225.5988 558.6487 227.1357 554.652 227.1357 C 551.6 227.1357 549.1475 226.19759 547.2945 224.32133 C 545.4415 222.44507 544.33334 219.71057 543.97 216.11774 C 541.86266 219.3912 539.5192 222.04587 536.9395 224.0818 C 534.3598 226.11775 531.2897 227.1357 527.729 227.1357 Z M 534.814 215.51893 C 536.6307 215.51893 538.42916 214.58082 540.2095 212.70456 C 541.98984 210.8283 543.207 208.25348 543.861 204.98 L 549.093 177.91414 C 549.093 176.87621 548.7297 175.85826 548.003 174.86025 C 547.2763 173.86224 546.15 173.36324 544.624 173.36324 C 541.7173 173.36324 539.10134 175.21951 536.776 178.9321 C 534.45066 182.6447 532.634 187.11571 531.326 192.34528 C 530.018 197.57485 529.364 202.18558 529.364 206.17762 C 529.364 210.16965 529.8908 212.72452 530.9445 213.84229 C 531.9982 214.96006 533.288 215.51893 534.814 215.51893 Z" fill="white"/>
      <path d="M 636.402 227.1357 C 632.55065 227.1357 629.753 225.85827 628.009 223.30336 C 626.265 220.74846 625.393 217.51496 625.393 213.60277 C 625.393 211.9261 625.5747 210.02992 625.938 207.91414 C 626.3013 205.79836 626.6828 203.7425 627.0825 201.74648 C 627.4822 199.75046 627.7547 198.47303 627.9 197.91414 C 628.4813 195.11972 629.0263 192.36525 629.535 189.65067 C 630.0437 186.93609 630.298 184.7405 630.298 183.06384 C 630.298 178.99197 628.99 176.95606 626.374 176.95606 C 624.48466 176.95606 622.81334 177.97401 621.36 180.00995 C 619.90666 182.0459 618.744 184.70055 617.872 187.97402 L 610.46 226.41714 L 594.764 226.41714 L 602.721 185.09977 C 602.939 184.14168 603.048 183.1437 603.048 182.10576 C 603.048 178.59277 601.958 176.8363 599.778 176.8363 C 597.7433 176.8363 595.9812 177.85425 594.4915 179.8902 C 593.0018 181.92613 591.821 184.62071 590.949 187.97402 L 583.537 226.41714 L 567.841 226.41714 L 579.395 166.5369 L 595.091 166.5369 L 593.892 172.76444 C 597.598 168.21352 602.03064 165.9381 607.19 165.9381 C 613.5847 165.9381 617.327 169.3712 618.417 176.2375 C 622.4137 169.45104 627.464 166.05786 633.568 166.05786 C 637.274 166.05786 640.217 167.1756 642.397 169.41115 C 644.577 171.64669 645.667 175.03987 645.667 179.5908 C 645.667 181.90617 645.4127 184.481 644.904 187.31534 C 644.3953 190.14969 643.6687 193.60275 642.724 197.67462 C 642.1427 200.14968 641.6158 202.56483 641.1435 204.92013 C 640.6712 207.27543 640.435 209.1317 640.435 210.489 C 640.435 212.0858 640.762 213.32332 641.416 214.20157 C 642.07 215.07982 643.1963 215.51893 644.795 215.51893 C 646.539 215.51893 647.738 215.27941 648.392 214.80037 C 647.956 218.87225 646.62984 221.94607 644.4135 224.02193 C 642.19716 226.09779 639.5267 227.1357 636.402 227.1357 Z" fill="white"/>
      <path d="M 712.157 227.97402 C 707.797 227.97402 703.36436 225.85828 698.859 221.62672 L 697.987 226.41714 L 682.291 226.41714 L 697.115 150.24947 L 713.247 147.85426 L 700.167 215.0399 C 702.2017 216.6367 704.27266 217.4351 706.38 217.4351 C 710.522 217.4351 714.1735 214.8004 717.3345 209.5309 C 720.4955 204.26142 722.948 197.5549 724.692 189.41115 C 726.436 181.2674 727.308 173.04393 727.308 164.7405 C 727.308 156.9161 725.9092 151.18761 723.1115 147.55486 C 720.3138 143.92211 716.408 142.10576 711.394 142.10576 C 705.944 142.10576 701.0572 143.2834 696.7335 145.6387 C 692.4098 147.994 689.0127 151.36721 686.542 155.75845 C 684.0713 160.1497 682.836 165.29934 682.836 171.20756 C 682.836 174.16166 683.0903 176.21753 683.599 177.37522 C 684.1077 178.53291 684.362 179.19159 684.362 179.35127 C 680.5833 179.35127 677.69484 178.47303 675.6965 176.71654 C 673.69816 174.96004 672.699 172.12574 672.699 168.21354 C 672.699 162.78438 674.552 157.63473 678.258 152.76444 C 681.964 147.89416 686.9235 143.98202 693.1365 141.02792 C 699.3495 138.07381 706.053 136.59678 713.247 136.59678 C 723.2024 136.59678 730.5416 139.83028 735.265 146.29738 C 739.9884 152.76447 742.35 161.02787 742.35 171.0878 C 742.35 180.18964 740.9512 189.15162 738.1535 197.97402 C 735.3558 206.79642 731.6317 214.00194 726.981 219.5908 C 722.3303 225.17964 717.389 227.97402 712.157 227.97402 Z" fill="white"/>
      <path d="M 759.899 227.1357 C 754.5216 227.1357 750.34335 225.5988 747.364 222.52492 C 744.38465 219.45105 742.895 214.64072 742.895 208.09378 C 742.895 202.58477 743.876 196.51697 745.838 189.8902 C 747.8 183.26341 750.9973 177.53493 755.43 172.70456 C 759.8627 167.8742 765.4943 165.45905 772.325 165.45905 C 780.3184 165.45905 784.315 169.29135 784.315 176.95606 C 784.315 181.42714 783.1523 185.53887 780.827 189.29139 C 778.5017 193.0439 775.41335 196.05784 771.562 198.3333 C 767.71065 200.60877 763.605 201.90616 759.245 202.22552 C 759.0997 204.62074 759.027 206.21753 759.027 207.01594 C 759.027 210.92813 759.6447 213.5828 760.88 214.98 C 762.1153 216.37722 764.11365 217.07582 766.875 217.07582 C 770.799 217.07582 774.1598 216.07783 776.9575 214.0818 C 779.7552 212.0858 782.8253 209.0519 786.168 204.98 L 789.874 204.98 C 781.808 219.75054 771.8164 227.1357 759.899 227.1357 Z M 760.117 196.47702 C 762.8057 196.31734 765.3672 195.27942 767.8015 193.36324 C 770.2358 191.44707 772.1978 189.01196 773.6875 186.05786 C 775.1772 183.10375 775.922 179.99 775.922 176.71654 C 775.922 173.44307 775.0137 171.80636 773.197 171.80636 C 770.581 171.80636 768.0195 174.3213 765.5125 179.35127 C 763.0055 184.38123 761.207 190.08976 760.117 196.47702 Z" fill="white"/>
      <path d="M 793.58 166.5369 L 809.276 166.5369 L 807.859 173.96205 C 810.3297 171.56683 812.5642 169.73052 814.5625 168.45307 C 816.5608 167.17561 818.7227 166.5369 821.048 166.5369 C 823.3733 166.5369 825.2082 167.41513 826.5525 169.17163 C 827.8968 170.92812 828.569 173.04387 828.569 175.51893 C 828.569 177.83431 827.8787 179.87022 826.498 181.62672 C 825.1173 183.38321 823.1917 184.26145 820.721 184.26145 C 819.1223 184.26145 818.0505 183.8423 817.5055 183.00396 C 816.9605 182.16564 816.5427 180.94808 816.252 179.35127 C 816.034 178.31334 815.816 177.55486 815.598 177.07582 C 815.38 176.59678 814.9803 176.35726 814.399 176.35726 C 812.873 176.35726 811.5832 176.69657 810.5295 177.37522 C 809.4758 178.05387 808.1133 179.2315 806.442 180.90815 L 797.722 226.41714 L 782.026 226.41714 Z" fill="white"/>
      <path d="M 837.943 227.1357 C 834.455 227.1357 831.6392 225.9381 829.4955 223.54289 C 827.3518 221.14766 826.28 217.55489 826.28 212.76444 C 826.28 210.76842 826.5707 208.17364 827.152 204.98 L 838.815 144.98001 L 854.947 142.5848 L 842.412 207.25546 C 842.1213 208.45307 841.976 209.7305 841.976 211.0878 C 841.976 212.6846 842.3212 213.82232 843.0115 214.50097 C 843.7018 215.17962 844.8463 215.51893 846.445 215.51893 C 848.5523 215.51893 850.5143 214.5409 852.331 212.5848 C 854.1477 210.6287 855.4557 208.0938 856.255 204.98 L 860.833 204.98 C 858.1443 213.6028 854.6927 219.45105 850.478 222.52492 C 846.2633 225.5988 842.085 227.1357 837.943 227.1357 Z" fill="white"/>
      <path d="M 874.458 160.06983 C 872.06 160.06983 870.0253 159.15168 868.354 157.31534 C 866.6827 155.479 865.847 153.2435 865.847 150.60875 C 865.847 147.97401 866.6827 145.71854 868.354 143.84229 C 870.0253 141.96603 872.06 141.02792 874.458 141.02792 C 876.856 141.02792 878.9088 141.96603 880.6165 143.84229 C 882.3242 145.71854 883.178 147.97401 883.178 150.60875 C 883.178 153.2435 882.3242 155.479 880.6165 157.31534 C 878.9088 159.15168 876.856 160.06983 874.458 160.06983 Z M 867.046 227.1357 C 863.558 227.1357 860.7422 225.9381 858.5985 223.54289 C 856.4548 221.14766 855.383 217.55489 855.383 212.76444 C 855.383 210.76842 855.6737 208.17364 856.255 204.98 L 863.667 166.5369 L 879.363 166.5369 L 871.515 207.25546 C 871.2243 208.45307 871.079 209.7305 871.079 211.0878 C 871.079 212.6846 871.4242 213.82232 872.1145 214.50097 C 872.8048 215.17962 873.9493 215.51893 875.548 215.51893 C 877.6553 215.51893 879.6173 214.5409 881.434 212.5848 C 883.2507 210.6287 884.5587 208.0938 885.358 204.98 L 889.936 204.98 C 887.2473 213.6028 883.7957 219.45105 879.581 222.52492 C 875.3663 225.5988 871.188 227.1357 867.046 227.1357 Z" fill="white"/>
      <path d="M 922.854 227.1357 C 919.0026 227.1357 916.205 225.85827 914.461 223.30336 C 912.717 220.74846 911.845 217.51496 911.845 213.60277 C 911.845 211.9261 912.0267 210.02992 912.39 207.91414 C 912.7533 205.79836 913.1348 203.7425 913.5345 201.74648 C 913.9342 199.75046 914.2067 198.47303 914.352 197.91414 C 914.9333 195.11972 915.4783 192.36525 915.987 189.65067 C 916.4957 186.93609 916.75 184.7405 916.75 183.06384 C 916.75 178.99197 915.442 176.95606 912.826 176.95606 C 910.9367 176.95606 909.2653 177.97401 907.812 180.00995 C 906.3587 182.0459 905.196 184.70055 904.324 187.97402 L 896.912 226.41714 L 881.216 226.41714 L 892.77 166.5369 L 908.466 166.5369 L 907.267 172.76444 C 910.9004 168.29336 915.1513 166.05786 920.02 166.05786 C 923.726 166.05786 926.669 167.1756 928.849 169.41115 C 931.029 171.64669 932.119 175.03987 932.119 179.5908 C 932.119 181.90617 931.8647 184.481 931.356 187.31534 C 930.8473 190.14969 930.1207 193.60275 929.176 197.67462 C 928.5947 200.14968 928.0678 202.56483 927.5955 204.92013 C 927.1232 207.27543 926.887 209.1317 926.887 210.489 C 926.887 212.0858 927.214 213.32332 927.868 214.20157 C 928.522 215.07982 929.6483 215.51893 931.247 215.51893 C 932.991 215.51893 934.19 215.27941 934.844 214.80037 C 934.408 218.87225 933.0818 221.94607 930.8655 224.02193 C 928.6492 226.09779 925.9787 227.1357 922.854 227.1357 Z" fill="white"/>
      <path d="M 977.463 138.87223 L 994.249 136.35726 L 978.444 198.75247 L 969.179 198.75247 Z M 970.705 227.1357 C 968.307 227.1357 966.2542 226.19759 964.5465 224.32133 C 962.8388 222.44507 961.985 220.1896 961.985 217.55486 C 961.985 214.92012 962.8388 212.6846 964.5465 210.84827 C 966.2542 209.01194 968.307 208.09378 970.705 208.09378 C 973.103 208.09378 975.1377 209.01194 976.809 210.84827 C 978.4803 212.6846 979.316 214.92012 979.316 217.55486 C 979.316 220.1896 978.4803 222.44507 976.809 224.32133 C 975.1377 226.19759 973.103 227.1357 970.705 227.1357 Z" fill="white"/>
    </g>
  </g>
</svg>
